<svg width="22" height="17" viewBox="0 0 22 17" fill="none" xmlns="http://www.w3.org/2000/svg">
<g clip-path="url(#clip0_3442_2)">
<path d="M16.6328 16.1153C16.4796 15.886 16.3337 15.6517 16.1954 15.4128C16.6119 15.2208 17.018 15.0058 17.4119 14.7687L18.4073 14.1696L17.4515 13.5091C17.3192 13.4177 17.1835 13.3123 17.0446 13.1967L16.6746 12.8889L16.2406 13.097C14.6005 13.8833 12.8112 14.2908 11 14.2908C9.18881 14.2908 7.39945 13.8833 5.75935 13.097L5.33957 12.8957L4.97292 13.1826C4.82409 13.299 4.67728 13.4133 4.52889 13.5231L3.62691 14.19L4.58798 14.7686C4.98076 15.0051 5.38574 15.2196 5.80109 15.4111C5.66269 15.6503 5.51678 15.8849 5.36359 16.1145C3.74203 15.557 2.20838 14.7603 0.81172 13.749C0.512598 9.90616 1.26357 6.02064 3.86393 2.01895C5.0275 1.49336 6.24314 1.09847 7.4894 0.840952C7.59508 1.05595 7.69444 1.27419 7.78733 1.49537L8.01404 2.03517L8.59272 1.94626C10.1868 1.70135 11.8079 1.70135 13.4021 1.94626L13.9809 2.03519L14.2075 1.49522C14.3004 1.27385 14.3998 1.05545 14.5056 0.840307C15.7514 1.09628 16.9665 1.49048 18.1293 2.0162C20.396 5.46554 21.5361 9.32 21.1885 13.7507C19.7913 14.763 18.2561 15.5596 16.6328 16.1153Z" stroke="black" stroke-width="1.5"/>
<ellipse cx="7.32031" cy="9.35352" rx="1.98828" ry="2.23486" fill="black"/>
<ellipse cx="14.6797" cy="9.35352" rx="1.98828" ry="2.23486" fill="black"/>
</g>
<defs>
<clipPath id="clip0_3442_2">
<rect width="22" height="17" fill="white"/>
</clipPath>
</defs>
</svg>
