<svg width="422" height="150" viewBox="0 0 422 150" fill="none" xmlns="http://www.w3.org/2000/svg">
<g clip-path="url(#clip0_3380_3)">
<rect width="422" height="150" fill="black"/>
<path d="M171.44 99.64C167.973 99.64 164.907 98.9467 162.24 97.56C159.627 96.1733 157.573 94.2267 156.08 91.72C154.64 89.16 153.92 86.2267 153.92 82.92V59.08C153.92 55.7733 154.64 52.8667 156.08 50.36C157.573 47.8 159.627 45.8267 162.24 44.44C164.907 43.0533 167.973 42.36 171.44 42.36C174.907 42.36 177.973 43.0533 180.64 44.44C183.307 45.7733 185.36 47.6667 186.8 50.12C188.293 52.5733 189.04 55.3733 189.04 58.52V60.36C189.04 60.6267 188.933 60.8667 188.72 61.08C188.56 61.24 188.347 61.32 188.08 61.32H180.72C180.453 61.32 180.213 61.24 180 61.08C179.84 60.8667 179.76 60.6267 179.76 60.36V58.52C179.76 56.12 178.987 54.1733 177.44 52.68C175.947 51.1333 173.947 50.36 171.44 50.36C168.987 50.36 166.987 51.16 165.44 52.76C163.947 54.3067 163.2 56.36 163.2 58.92V83.08C163.2 85.64 163.973 87.72 165.52 89.32C167.12 90.8667 169.173 91.64 171.68 91.64C174.133 91.64 176.08 90.9467 177.52 89.56C179.013 88.12 179.76 86.1733 179.76 83.72V77.4C179.76 77.1333 179.627 77 179.36 77H172.08C171.813 77 171.573 76.92 171.36 76.76C171.2 76.5467 171.12 76.3067 171.12 76.04V70.2C171.12 69.9333 171.2 69.72 171.36 69.56C171.573 69.3467 171.813 69.24 172.08 69.24H188.08C188.347 69.24 188.56 69.3467 188.72 69.56C188.933 69.72 189.04 69.9333 189.04 70.2V82.68C189.04 87.96 187.44 92.12 184.24 95.16C181.04 98.1467 176.773 99.64 171.44 99.64ZM228.096 71.72C228.256 73.48 228.336 75.5067 228.336 77.8L228.256 81.24C228.256 81.88 227.936 82.2 227.296 82.2H205.856C205.59 82.2 205.456 82.3333 205.456 82.6C205.563 84.0933 205.67 85.1867 205.776 85.88C206.043 87.64 206.79 89.0533 208.016 90.12C209.243 91.1867 210.79 91.72 212.656 91.72C214.256 91.6667 215.59 91.2667 216.656 90.52C217.776 89.7733 218.63 88.7333 219.216 87.4C219.483 86.8133 219.883 86.6 220.416 86.76L226.976 88.12C227.616 88.3333 227.83 88.7333 227.616 89.32C226.55 92.6267 224.71 95.1867 222.096 97C219.536 98.76 216.39 99.64 212.656 99.64C208.23 99.64 204.683 98.5733 202.016 96.44C199.35 94.3067 197.616 91.3467 196.816 87.56C196.55 86.12 196.363 84.6 196.256 83C196.203 81.4 196.176 79.2667 196.176 76.6C196.176 73.8267 196.31 71.72 196.576 70.28C197.11 66.3867 198.763 63.2933 201.536 61C204.31 58.6533 207.83 57.48 212.096 57.48C216.736 57.48 220.47 58.7867 223.296 61.4C226.176 64.0133 227.776 67.4533 228.096 71.72ZM212.176 65.48C210.416 65.48 208.95 66.0133 207.776 67.08C206.656 68.0933 205.963 69.48 205.696 71.24C205.536 72.4133 205.456 73.7467 205.456 75.24C205.456 75.5067 205.59 75.64 205.856 75.64H218.576C218.843 75.64 218.976 75.5067 218.976 75.24C218.87 73.4267 218.763 72.12 218.656 71.32C218.443 69.56 217.75 68.1467 216.576 67.08C215.403 66.0133 213.936 65.48 212.176 65.48ZM254.286 57.48C258.18 57.48 261.22 58.7067 263.406 61.16C265.593 63.6133 266.686 67 266.686 71.32V98.04C266.686 98.3067 266.58 98.5467 266.366 98.76C266.206 98.92 265.993 99 265.726 99H258.366C258.1 99 257.86 98.92 257.646 98.76C257.486 98.5467 257.406 98.3067 257.406 98.04V72.6C257.406 70.4133 256.846 68.68 255.726 67.4C254.66 66.12 253.193 65.48 251.326 65.48C249.406 65.48 247.86 66.1467 246.686 67.48C245.566 68.76 245.006 70.4933 245.006 72.68V98.04C245.006 98.3067 244.9 98.5467 244.686 98.76C244.526 98.92 244.313 99 244.046 99H236.686C236.42 99 236.18 98.92 235.966 98.76C235.806 98.5467 235.726 98.3067 235.726 98.04V59.08C235.726 58.8133 235.806 58.6 235.966 58.44C236.18 58.2267 236.42 58.12 236.686 58.12H244.046C244.313 58.12 244.526 58.2267 244.686 58.44C244.9 58.6 245.006 58.8133 245.006 59.08V61.16C245.006 61.32 245.06 61.4267 245.166 61.48C245.273 61.5333 245.38 61.48 245.486 61.32C247.62 58.76 250.553 57.48 254.286 57.48ZM301.103 43.96C301.103 43.6933 301.183 43.48 301.343 43.32C301.556 43.1067 301.796 43 302.063 43H309.423C309.69 43 309.903 43.1067 310.063 43.32C310.276 43.48 310.383 43.6933 310.383 43.96V98.04C310.383 98.3067 310.276 98.5467 310.063 98.76C309.903 98.92 309.69 99 309.423 99H302.063C301.796 99 301.556 98.92 301.343 98.76C301.183 98.5467 301.103 98.3067 301.103 98.04V75.32C301.103 75.0533 300.97 74.92 300.703 74.92H285.503C285.236 74.92 285.103 75.0533 285.103 75.32V98.04C285.103 98.3067 284.996 98.5467 284.783 98.76C284.623 98.92 284.41 99 284.143 99H276.783C276.516 99 276.276 98.92 276.063 98.76C275.903 98.5467 275.823 98.3067 275.823 98.04V43.96C275.823 43.6933 275.903 43.48 276.063 43.32C276.276 43.1067 276.516 43 276.783 43H284.143C284.41 43 284.623 43.1067 284.783 43.32C284.996 43.48 285.103 43.6933 285.103 43.96V66.44C285.103 66.7067 285.236 66.84 285.503 66.84H300.703C300.97 66.84 301.103 66.7067 301.103 66.44V43.96ZM340.834 59.08C340.834 58.8133 340.914 58.6 341.074 58.44C341.288 58.2267 341.528 58.12 341.794 58.12H349.154C349.421 58.12 349.634 58.2267 349.794 58.44C350.008 58.6 350.114 58.8133 350.114 59.08V98.04C350.114 98.3067 350.008 98.5467 349.794 98.76C349.634 98.92 349.421 99 349.154 99H341.794C341.528 99 341.288 98.92 341.074 98.76C340.914 98.5467 340.834 98.3067 340.834 98.04V95.88C340.834 95.72 340.781 95.64 340.674 95.64C340.568 95.5867 340.461 95.64 340.354 95.8C338.541 98.3067 335.688 99.56 331.794 99.56C328.168 99.56 325.154 98.4933 322.754 96.36C320.354 94.1733 319.154 91 319.154 86.84V59.08C319.154 58.8133 319.234 58.6 319.394 58.44C319.608 58.2267 319.848 58.12 320.114 58.12H327.474C327.741 58.12 327.954 58.2267 328.114 58.44C328.328 58.6 328.434 58.8133 328.434 59.08V84.52C328.434 86.76 328.941 88.52 329.954 89.8C331.021 91.0267 332.541 91.64 334.514 91.64C336.488 91.64 338.034 91 339.154 89.72C340.274 88.3867 340.834 86.6 340.834 84.36V59.08ZM389.895 69.64C390.375 72.36 390.615 75.2933 390.615 78.44C390.615 81.6933 390.322 84.7067 389.735 87.48C388.775 91.5333 387.282 94.5733 385.255 96.6C383.228 98.6267 380.562 99.64 377.255 99.64C373.468 99.64 370.562 98.36 368.535 95.8C368.428 95.64 368.322 95.5867 368.215 95.64C368.108 95.6933 368.055 95.8 368.055 95.96V98.04C368.055 98.3067 367.948 98.5467 367.735 98.76C367.575 98.92 367.362 99 367.095 99H359.735C359.468 99 359.228 98.92 359.015 98.76C358.855 98.5467 358.775 98.3067 358.775 98.04V43.96C358.775 43.6933 358.855 43.48 359.015 43.32C359.228 43.1067 359.468 43 359.735 43H367.095C367.362 43 367.575 43.1067 367.735 43.32C367.948 43.48 368.055 43.6933 368.055 43.96V61C368.055 61.16 368.108 61.2667 368.215 61.32C368.322 61.32 368.428 61.24 368.535 61.08C370.402 58.68 373.202 57.48 376.935 57.48C383.922 57.48 388.242 61.5333 389.895 69.64ZM380.455 86.52C380.988 84.6533 381.255 81.9867 381.255 78.52C381.255 75.0533 380.935 72.28 380.295 70.2C379.175 67.0533 377.228 65.48 374.455 65.48C371.682 65.48 369.868 67.08 369.015 70.28C368.428 72.1467 368.135 74.8933 368.135 78.52C368.135 82.04 368.402 84.7333 368.935 86.6C369.842 89.96 371.708 91.64 374.535 91.64C377.522 91.64 379.495 89.9333 380.455 86.52Z" fill="white"/>
<path d="M24.56 98.68H26.24C28 98.68 29.28 98.2533 30.08 97.4C30.9333 96.4933 31.36 95.1333 31.36 93.32V80.12C31.36 78.52 31.7867 77.0267 32.64 75.64C33.4933 74.2533 34.6667 73.1333 36.16 72.28C34.6667 71.3733 33.4933 70.2267 32.64 68.84C31.7867 67.4 31.36 65.88 31.36 64.28V51.32C31.36 49.5067 30.9333 48.1733 30.08 47.32C29.28 46.4133 28 45.96 26.24 45.96H24.56V39H28.88C33.6267 39 36.9867 40.1467 38.96 42.44C40.9333 44.7333 41.92 48.2 41.92 52.84V63.48C41.92 65.4 42.4 66.7333 43.36 67.48C44.3733 68.2267 45.84 68.6 47.76 68.6V75.72C45.84 75.72 44.3733 76.12 43.36 76.92C42.4 77.6667 41.92 79 41.92 80.92V91.72C41.92 96.36 40.9333 99.8267 38.96 102.12C36.9867 104.467 33.6267 105.64 28.88 105.64H24.56V98.68Z" fill="#63CC48"/>
<path d="M69.34 105.64C64.5933 105.64 61.2333 104.467 59.26 102.12C57.2867 99.8267 56.3 96.36 56.3 91.72V80.92C56.3 79 55.7933 77.6667 54.78 76.92C53.82 76.12 52.38 75.72 50.46 75.72V68.6C52.38 68.6 53.82 68.2267 54.78 67.48C55.7933 66.7333 56.3 65.4 56.3 63.48V52.84C56.3 48.2 57.2867 44.7333 59.26 42.44C61.2333 40.1467 64.5933 39 69.34 39H73.66V45.96H71.98C70.22 45.96 68.9133 46.4133 68.06 47.32C67.26 48.1733 66.86 49.5067 66.86 51.32V64.28C66.86 65.88 66.4333 67.4 65.58 68.84C64.7267 70.2267 63.5533 71.3733 62.06 72.28C63.5533 73.1333 64.7267 74.2533 65.58 75.64C66.4333 77.0267 66.86 78.52 66.86 80.12V93.32C66.86 95.1333 67.26 96.4933 68.06 97.4C68.9133 98.2533 70.22 98.68 71.98 98.68H73.66V105.64H69.34Z" fill="#32B5FF"/>
<path d="M76.36 98.68H78.04C79.8 98.68 81.08 98.2533 81.88 97.4C82.7333 96.4933 83.16 95.1333 83.16 93.32V80.12C83.16 78.52 83.5867 77.0267 84.44 75.64C85.2933 74.2533 86.4667 73.1333 87.96 72.28C86.4667 71.3733 85.2933 70.2267 84.44 68.84C83.5867 67.4 83.16 65.88 83.16 64.28V51.32C83.16 49.5067 82.7333 48.1733 81.88 47.32C81.08 46.4133 79.8 45.96 78.04 45.96H76.36V39H80.68C85.4267 39 88.7867 40.1467 90.76 42.44C92.7333 44.7333 93.72 48.2 93.72 52.84V63.48C93.72 65.4 94.2 66.7333 95.16 67.48C96.1733 68.2267 97.64 68.6 99.56 68.6V75.72C97.64 75.72 96.1733 76.12 95.16 76.92C94.2 77.6667 93.72 79 93.72 80.92V91.72C93.72 96.36 92.7333 99.8267 90.76 102.12C88.7867 104.467 85.4267 105.64 80.68 105.64H76.36V98.68Z" fill="#BD7BFF"/>
<path d="M121.14 105.64C116.393 105.64 113.033 104.467 111.06 102.12C109.087 99.8267 108.1 96.36 108.1 91.72V80.92C108.1 79 107.593 77.6667 106.58 76.92C105.62 76.12 104.18 75.72 102.26 75.72V68.6C104.18 68.6 105.62 68.2267 106.58 67.48C107.593 66.7333 108.1 65.4 108.1 63.48V52.84C108.1 48.2 109.087 44.7333 111.06 42.44C113.033 40.1467 116.393 39 121.14 39H125.46V45.96H123.78C122.02 45.96 120.713 46.4133 119.86 47.32C119.06 48.1733 118.66 49.5067 118.66 51.32V64.28C118.66 65.88 118.233 67.4 117.38 68.84C116.527 70.2267 115.353 71.3733 113.86 72.28C115.353 73.1333 116.527 74.2533 117.38 75.64C118.233 77.0267 118.66 78.52 118.66 80.12V93.32C118.66 95.1333 119.06 96.4933 119.86 97.4C120.713 98.2533 122.02 98.68 123.78 98.68H125.46V105.64H121.14Z" fill="#FF6767"/>
</g>
<defs>
<clipPath id="clip0_3380_3">
<rect width="422" height="150" fill="white"/>
</clipPath>
</defs>
</svg>
