<svg width="499" height="150" viewBox="0 0 499 150" fill="none" xmlns="http://www.w3.org/2000/svg">
<g clip-path="url(#clip0_3380_3)">
<rect width="499" height="150" fill="black"/>
<path d="M171.44 99.64C167.973 99.64 164.907 98.9467 162.24 97.56C159.627 96.1733 157.573 94.2267 156.08 91.72C154.64 89.16 153.92 86.2267 153.92 82.92V59.08C153.92 55.7733 154.64 52.8667 156.08 50.36C157.573 47.8 159.627 45.8267 162.24 44.44C164.907 43.0533 167.973 42.36 171.44 42.36C174.907 42.36 177.973 43.0533 180.64 44.44C183.307 45.7733 185.36 47.6667 186.8 50.12C188.293 52.5733 189.04 55.3733 189.04 58.52V60.36C189.04 60.6267 188.933 60.8667 188.72 61.08C188.56 61.24 188.347 61.32 188.08 61.32H180.72C180.453 61.32 180.213 61.24 180 61.08C179.84 60.8667 179.76 60.6267 179.76 60.36V58.52C179.76 56.12 178.987 54.1733 177.44 52.68C175.947 51.1333 173.947 50.36 171.44 50.36C168.987 50.36 166.987 51.16 165.44 52.76C163.947 54.3067 163.2 56.36 163.2 58.92V83.08C163.2 85.64 163.973 87.72 165.52 89.32C167.12 90.8667 169.173 91.64 171.68 91.64C174.133 91.64 176.08 90.9467 177.52 89.56C179.013 88.12 179.76 86.1733 179.76 83.72V77.4C179.76 77.1333 179.627 77 179.36 77H172.08C171.813 77 171.573 76.92 171.36 76.76C171.2 76.5467 171.12 76.3067 171.12 76.04V70.2C171.12 69.9333 171.2 69.72 171.36 69.56C171.573 69.3467 171.813 69.24 172.08 69.24H188.08C188.347 69.24 188.56 69.3467 188.72 69.56C188.933 69.72 189.04 69.9333 189.04 70.2V82.68C189.04 87.96 187.44 92.12 184.24 95.16C181.04 98.1467 176.773 99.64 171.44 99.64ZM228.096 71.72C228.256 73.48 228.336 75.5067 228.336 77.8L228.256 81.24C228.256 81.88 227.936 82.2 227.296 82.2H205.856C205.59 82.2 205.456 82.3333 205.456 82.6C205.563 84.0933 205.67 85.1867 205.776 85.88C206.043 87.64 206.79 89.0533 208.016 90.12C209.243 91.1867 210.79 91.72 212.656 91.72C214.256 91.6667 215.59 91.2667 216.656 90.52C217.776 89.7733 218.63 88.7333 219.216 87.4C219.483 86.8133 219.883 86.6 220.416 86.76L226.976 88.12C227.616 88.3333 227.83 88.7333 227.616 89.32C226.55 92.6267 224.71 95.1867 222.096 97C219.536 98.76 216.39 99.64 212.656 99.64C208.23 99.64 204.683 98.5733 202.016 96.44C199.35 94.3067 197.616 91.3467 196.816 87.56C196.55 86.12 196.363 84.6 196.256 83C196.203 81.4 196.176 79.2667 196.176 76.6C196.176 73.8267 196.31 71.72 196.576 70.28C197.11 66.3867 198.763 63.2933 201.536 61C204.31 58.6533 207.83 57.48 212.096 57.48C216.736 57.48 220.47 58.7867 223.296 61.4C226.176 64.0133 227.776 67.4533 228.096 71.72ZM212.176 65.48C210.416 65.48 208.95 66.0133 207.776 67.08C206.656 68.0933 205.963 69.48 205.696 71.24C205.536 72.4133 205.456 73.7467 205.456 75.24C205.456 75.5067 205.59 75.64 205.856 75.64H218.576C218.843 75.64 218.976 75.5067 218.976 75.24C218.87 73.4267 218.763 72.12 218.656 71.32C218.443 69.56 217.75 68.1467 216.576 67.08C215.403 66.0133 213.936 65.48 212.176 65.48ZM254.286 57.48C258.18 57.48 261.22 58.7067 263.406 61.16C265.593 63.6133 266.686 67 266.686 71.32V98.04C266.686 98.3067 266.58 98.5467 266.366 98.76C266.206 98.92 265.993 99 265.726 99H258.366C258.1 99 257.86 98.92 257.646 98.76C257.486 98.5467 257.406 98.3067 257.406 98.04V72.6C257.406 70.4133 256.846 68.68 255.726 67.4C254.66 66.12 253.193 65.48 251.326 65.48C249.406 65.48 247.86 66.1467 246.686 67.48C245.566 68.76 245.006 70.4933 245.006 72.68V98.04C245.006 98.3067 244.9 98.5467 244.686 98.76C244.526 98.92 244.313 99 244.046 99H236.686C236.42 99 236.18 98.92 235.966 98.76C235.806 98.5467 235.726 98.3067 235.726 98.04V59.08C235.726 58.8133 235.806 58.6 235.966 58.44C236.18 58.2267 236.42 58.12 236.686 58.12H244.046C244.313 58.12 244.526 58.2267 244.686 58.44C244.9 58.6 245.006 58.8133 245.006 59.08V61.16C245.006 61.32 245.06 61.4267 245.166 61.48C245.273 61.5333 245.38 61.48 245.486 61.32C247.62 58.76 250.553 57.48 254.286 57.48ZM296.303 59.08C296.303 58.8133 296.383 58.6 296.543 58.44C296.756 58.2267 296.996 58.12 297.263 58.12H304.623C304.89 58.12 305.103 58.2267 305.263 58.44C305.476 58.6 305.583 58.8133 305.583 59.08V98.04C305.583 98.3067 305.476 98.5467 305.263 98.76C305.103 98.92 304.89 99 304.623 99H297.263C296.996 99 296.756 98.92 296.543 98.76C296.383 98.5467 296.303 98.3067 296.303 98.04V95.88C296.303 95.72 296.25 95.64 296.143 95.64C296.036 95.5867 295.93 95.64 295.823 95.8C294.01 98.3067 291.156 99.56 287.263 99.56C283.636 99.56 280.623 98.4933 278.223 96.36C275.823 94.1733 274.623 91 274.623 86.84V59.08C274.623 58.8133 274.703 58.6 274.863 58.44C275.076 58.2267 275.316 58.12 275.583 58.12H282.943C283.21 58.12 283.423 58.2267 283.583 58.44C283.796 58.6 283.903 58.8133 283.903 59.08V84.52C283.903 86.76 284.41 88.52 285.423 89.8C286.49 91.0267 288.01 91.64 289.983 91.64C291.956 91.64 293.503 91 294.623 89.72C295.743 88.3867 296.303 86.6 296.303 84.36V59.08ZM328.004 99.48C323.364 99.48 319.657 98.44 316.884 96.36C314.11 94.28 312.724 91.56 312.724 88.2V87.56C312.724 87.2933 312.804 87.08 312.964 86.92C313.177 86.7067 313.417 86.6 313.684 86.6H320.644C320.91 86.6 321.124 86.7067 321.284 86.92C321.497 87.08 321.604 87.2933 321.604 87.56V87.8C321.604 89.08 322.217 90.2 323.444 91.16C324.67 92.0667 326.19 92.52 328.004 92.52C329.764 92.52 331.177 92.0933 332.244 91.24C333.364 90.3867 333.924 89.32 333.924 88.04C333.924 86.76 333.364 85.7733 332.244 85.08C331.177 84.3867 329.497 83.64 327.204 82.84L325.124 82.12C321.497 80.9467 318.59 79.48 316.404 77.72C314.217 75.9067 313.124 73.24 313.124 69.72C313.124 65.9867 314.457 63.0533 317.124 60.92C319.79 58.7333 323.31 57.64 327.684 57.64C332.217 57.64 335.817 58.76 338.484 61C341.204 63.1867 342.564 66.12 342.564 69.8V69.88C342.564 70.1467 342.457 70.3867 342.244 70.6C342.084 70.76 341.87 70.84 341.604 70.84H334.884C334.617 70.84 334.377 70.76 334.164 70.6C334.004 70.3867 333.924 70.1467 333.924 69.88V69.56C333.924 68.2267 333.364 67.1333 332.244 66.28C331.124 65.3733 329.657 64.92 327.844 64.92C326.084 64.92 324.67 65.3467 323.604 66.2C322.537 67 322.004 68.04 322.004 69.32C322.004 70.3333 322.377 71.1867 323.124 71.88C323.87 72.52 324.697 73.0267 325.604 73.4C326.564 73.7733 328.217 74.36 330.564 75.16C333.07 76.0133 335.177 76.8933 336.884 77.8C338.644 78.7067 340.137 79.96 341.364 81.56C342.59 83.16 343.204 85.1867 343.204 87.64C343.204 91.32 341.817 94.2267 339.044 96.36C336.324 98.44 332.644 99.48 328.004 99.48ZM351.627 99C351.36 99 351.12 98.92 350.907 98.76C350.747 98.5467 350.667 98.3067 350.667 98.04V43.96C350.667 43.6933 350.747 43.48 350.907 43.32C351.12 43.1067 351.36 43 351.627 43H368.187C373.36 43 377.494 44.44 380.587 47.32C383.734 50.2 385.307 54.04 385.307 58.84V83.16C385.307 87.96 383.734 91.8 380.587 94.68C377.494 97.56 373.36 99 368.187 99H351.627ZM359.947 90.6C359.947 90.8667 360.08 91 360.347 91L368.267 90.92C370.56 90.92 372.4 90.1467 373.787 88.6C375.174 87 375.92 84.84 376.027 82.12V59.88C376.027 57.16 375.307 55 373.867 53.4C372.48 51.8 370.614 51 368.267 51H360.347C360.08 51 359.947 51.1333 359.947 51.4V90.6ZM420.793 99C420.206 99 419.833 98.7333 419.673 98.2L417.593 89.64C417.54 89.4267 417.406 89.32 417.193 89.32H400.713C400.5 89.32 400.366 89.4267 400.313 89.64L398.313 98.2C398.153 98.7333 397.78 99 397.193 99H389.593C388.9 99 388.633 98.6533 388.793 97.96L403.353 43.8C403.513 43.2667 403.886 43 404.473 43H413.593C414.18 43 414.553 43.2667 414.713 43.8L429.273 97.96L429.353 98.28C429.353 98.76 429.06 99 428.473 99H420.793ZM402.233 81.56C402.18 81.72 402.206 81.8533 402.313 81.96C402.42 82.0133 402.526 82.04 402.633 82.04H415.273C415.38 82.04 415.486 82.0133 415.593 81.96C415.7 81.8533 415.726 81.72 415.673 81.56L409.113 55.32C409.06 55.16 408.98 55.08 408.873 55.08C408.766 55.08 408.686 55.16 408.633 55.32L402.233 81.56ZM451.446 99.72C447.926 99.72 444.806 99 442.086 97.56C439.419 96.12 437.339 94.0933 435.846 91.48C434.406 88.8133 433.686 85.7467 433.686 82.28V59.72C433.686 56.3067 434.406 53.2933 435.846 50.68C437.339 48.0133 439.419 45.96 442.086 44.52C444.806 43.08 447.926 42.36 451.446 42.36C455.019 42.36 458.139 43.08 460.806 44.52C463.526 45.96 465.632 48.0133 467.126 50.68C468.619 53.2933 469.366 56.3067 469.366 59.72V82.28C469.366 85.7467 468.619 88.8133 467.126 91.48C465.632 94.0933 463.526 96.12 460.806 97.56C458.139 99 455.019 99.72 451.446 99.72ZM451.446 91.72C454.059 91.72 456.139 90.8933 457.686 89.24C459.286 87.5333 460.086 85.3467 460.086 82.68V59.48C460.086 56.76 459.286 54.5733 457.686 52.92C456.139 51.2133 454.059 50.36 451.446 50.36C448.886 50.36 446.832 51.2133 445.286 52.92C443.739 54.5733 442.966 56.76 442.966 59.48V82.68C442.966 85.3467 443.739 87.5333 445.286 89.24C446.832 90.8933 448.886 91.72 451.446 91.72Z" fill="white"/>
<path d="M24.56 98.68H26.24C28 98.68 29.28 98.2533 30.08 97.4C30.9333 96.4933 31.36 95.1333 31.36 93.32V80.12C31.36 78.52 31.7867 77.0267 32.64 75.64C33.4933 74.2533 34.6667 73.1333 36.16 72.28C34.6667 71.3733 33.4933 70.2267 32.64 68.84C31.7867 67.4 31.36 65.88 31.36 64.28V51.32C31.36 49.5067 30.9333 48.1733 30.08 47.32C29.28 46.4133 28 45.96 26.24 45.96H24.56V39H28.88C33.6267 39 36.9867 40.1467 38.96 42.44C40.9333 44.7333 41.92 48.2 41.92 52.84V63.48C41.92 65.4 42.4 66.7333 43.36 67.48C44.3733 68.2267 45.84 68.6 47.76 68.6V75.72C45.84 75.72 44.3733 76.12 43.36 76.92C42.4 77.6667 41.92 79 41.92 80.92V91.72C41.92 96.36 40.9333 99.8267 38.96 102.12C36.9867 104.467 33.6267 105.64 28.88 105.64H24.56V98.68Z" fill="#63CC48"/>
<path d="M69.34 105.64C64.5933 105.64 61.2333 104.467 59.26 102.12C57.2867 99.8267 56.3 96.36 56.3 91.72V80.92C56.3 79 55.7933 77.6667 54.78 76.92C53.82 76.12 52.38 75.72 50.46 75.72V68.6C52.38 68.6 53.82 68.2267 54.78 67.48C55.7933 66.7333 56.3 65.4 56.3 63.48V52.84C56.3 48.2 57.2867 44.7333 59.26 42.44C61.2333 40.1467 64.5933 39 69.34 39H73.66V45.96H71.98C70.22 45.96 68.9133 46.4133 68.06 47.32C67.26 48.1733 66.86 49.5067 66.86 51.32V64.28C66.86 65.88 66.4333 67.4 65.58 68.84C64.7267 70.2267 63.5533 71.3733 62.06 72.28C63.5533 73.1333 64.7267 74.2533 65.58 75.64C66.4333 77.0267 66.86 78.52 66.86 80.12V93.32C66.86 95.1333 67.26 96.4933 68.06 97.4C68.9133 98.2533 70.22 98.68 71.98 98.68H73.66V105.64H69.34Z" fill="#32B5FF"/>
<path d="M76.36 98.68H78.04C79.8 98.68 81.08 98.2533 81.88 97.4C82.7333 96.4933 83.16 95.1333 83.16 93.32V80.12C83.16 78.52 83.5867 77.0267 84.44 75.64C85.2933 74.2533 86.4667 73.1333 87.96 72.28C86.4667 71.3733 85.2933 70.2267 84.44 68.84C83.5867 67.4 83.16 65.88 83.16 64.28V51.32C83.16 49.5067 82.7333 48.1733 81.88 47.32C81.08 46.4133 79.8 45.96 78.04 45.96H76.36V39H80.68C85.4267 39 88.7867 40.1467 90.76 42.44C92.7333 44.7333 93.72 48.2 93.72 52.84V63.48C93.72 65.4 94.2 66.7333 95.16 67.48C96.1733 68.2267 97.64 68.6 99.56 68.6V75.72C97.64 75.72 96.1733 76.12 95.16 76.92C94.2 77.6667 93.72 79 93.72 80.92V91.72C93.72 96.36 92.7333 99.8267 90.76 102.12C88.7867 104.467 85.4267 105.64 80.68 105.64H76.36V98.68Z" fill="#BD7BFF"/>
<path d="M121.14 105.64C116.393 105.64 113.033 104.467 111.06 102.12C109.087 99.8267 108.1 96.36 108.1 91.72V80.92C108.1 79 107.593 77.6667 106.58 76.92C105.62 76.12 104.18 75.72 102.26 75.72V68.6C104.18 68.6 105.62 68.2267 106.58 67.48C107.593 66.7333 108.1 65.4 108.1 63.48V52.84C108.1 48.2 109.087 44.7333 111.06 42.44C113.033 40.1467 116.393 39 121.14 39H125.46V45.96H123.78C122.02 45.96 120.713 46.4133 119.86 47.32C119.06 48.1733 118.66 49.5067 118.66 51.32V64.28C118.66 65.88 118.233 67.4 117.38 68.84C116.527 70.2267 115.353 71.3733 113.86 72.28C115.353 73.1333 116.527 74.2533 117.38 75.64C118.233 77.0267 118.66 78.52 118.66 80.12V93.32C118.66 95.1333 119.06 96.4933 119.86 97.4C120.713 98.2533 122.02 98.68 123.78 98.68H125.46V105.64H121.14Z" fill="#FF6767"/>
</g>
<defs>
<clipPath id="clip0_3380_3">
<rect width="499" height="150" fill="white"/>
</clipPath>
</defs>
</svg>
