<svg width="970" height="670" viewBox="0 0 970 670" fill="none" xmlns="http://www.w3.org/2000/svg">
<g clip-path="url(#clip0_3474_2)">
<rect width="970" height="670" fill="url(#paint0_linear_3474_2)"/>
<path d="M261.86 299.934C139.468 370.052 0 670 0 670H970V165.41C970 165.41 788.307 119.487 676.206 165.41C606.665 193.898 574.354 253.333 504.826 281.931C412.064 320.085 352.691 247.897 261.86 299.934Z" fill="url(#paint1_linear_3474_2)"/>
<path d="M743 303.865C794.857 177.552 540 0 540 0H0V303.865V620C0 620 153.788 540.581 268.5 523.283C360.818 509.362 453.302 577.68 510 523.283C530.169 503.932 525.705 487.087 540 465.18C590.239 388.188 709.501 385.462 743 303.865Z" fill="url(#paint2_linear_3474_2)"/>
</g>
<defs>
<linearGradient id="paint0_linear_3474_2" x1="970" y1="0" x2="-85.2502" y2="484.214" gradientUnits="userSpaceOnUse">
<stop stop-color="#FFE2E2"/>
<stop offset="1" stop-color="#BCDFFF"/>
</linearGradient>
<linearGradient id="paint1_linear_3474_2" x1="709.737" y1="123.902" x2="220.032" y2="367.888" gradientUnits="userSpaceOnUse">
<stop stop-color="#FFE7E7"/>
<stop offset="1" stop-color="#FEBCFF" stop-opacity="0"/>
</linearGradient>
<linearGradient id="paint2_linear_3474_2" x1="-191" y1="276.799" x2="542.479" y2="-40.8113" gradientUnits="userSpaceOnUse">
<stop stop-color="#BDFBFF"/>
<stop offset="1" stop-color="#FF9089" stop-opacity="0"/>
</linearGradient>
<clipPath id="clip0_3474_2">
<rect width="970" height="670" fill="white"/>
</clipPath>
</defs>
</svg>
